<mxfile host="app.diagrams.net" modified="2022-10-07T04:20:38.735Z" agent="5.0 (Windows NT 10.0; Win64; x64) AppleWebKit/537.36 (KHTML, like Gecko) Chrome/105.0.0.0 Safari/537.36" etag="fm5iKSN6zZ-isELZbSX0" version="20.4.0" type="github">
  <diagram id="oVYSOwSsWsmqmF0uVUiX" name="페이지-1">
    <mxGraphModel dx="868" dy="425" grid="1" gridSize="10" guides="1" tooltips="1" connect="1" arrows="1" fold="1" page="1" pageScale="1" pageWidth="827" pageHeight="1169" math="0" shadow="0">
      <root>
        <mxCell id="0" />
        <mxCell id="1" parent="0" />
        <mxCell id="2ogeVlffNBRFNPIld1LT-1" value="Actor" style="shape=umlActor;verticalLabelPosition=bottom;verticalAlign=top;html=1;outlineConnect=0;" vertex="1" parent="1">
          <mxGeometry x="100" y="130" width="30" height="60" as="geometry" />
        </mxCell>
        <mxCell id="2ogeVlffNBRFNPIld1LT-2" value="계산" style="ellipse;whiteSpace=wrap;html=1;" vertex="1" parent="1">
          <mxGeometry x="290" y="120" width="120" height="80" as="geometry" />
        </mxCell>
        <mxCell id="2ogeVlffNBRFNPIld1LT-3" value="비트 연산" style="ellipse;whiteSpace=wrap;html=1;" vertex="1" parent="1">
          <mxGeometry x="520" y="120" width="120" height="80" as="geometry" />
        </mxCell>
        <mxCell id="2ogeVlffNBRFNPIld1LT-4" value="단위 변환" style="ellipse;whiteSpace=wrap;html=1;" vertex="1" parent="1">
          <mxGeometry x="520" y="250" width="120" height="80" as="geometry" />
        </mxCell>
        <mxCell id="2ogeVlffNBRFNPIld1LT-5" value="비트패턴 연산" style="ellipse;whiteSpace=wrap;html=1;" vertex="1" parent="1">
          <mxGeometry x="520" y="10" width="120" height="80" as="geometry" />
        </mxCell>
      </root>
    </mxGraphModel>
  </diagram>
</mxfile>
